PathFileType	4	(X/Y/Z)	/Users/itak/Documents/Research/Walk-IL/dataset/trc/00442_00167.trc
DataRate	CameraRate	NumFrames	NumMarkers	Units	OrigDataRate	OrigDataStartFrame	OrigNumFrames
100.000000	100.000000	4	53	mm	100.000000	132	529
Frame#	Time	RPSI			LPSI			L3			STRN			T10			C7			CLAV			RBAK			LBAK			LSHO			LUPA			LAEL			LAOL			LWTS			LWPS			LFRA			LIFD			LHPS			LHTS			RSHO			RUPA			RAEL			RAOL			RWTS			RWPS			RFRA			RIFD			RHTS			RHPS			RBHD			LFHD			RFHD			LBHD			LHIP			RHIP			RASI			LASI			LKNE			LTHI			LANK			LTIP			LTOE			LMT1			LMT5			LHEE			RKNE			RTHI			RANK			RTIP			RTOE			RMT1			RMT5			RHEE			
		X1	Y1	Z1	X2	Y2	Z2	X3	Y3	Z3	X4	Y4	Z4	X5	Y5	Z5	X6	Y6	Z6	X7	Y7	Z7	X8	Y8	Z8	X9	Y9	Z9	X10	Y10	Z10	X11	Y11	Z11	X12	Y12	Z12	X13	Y13	Z13	X14	Y14	Z14	X15	Y15	Z15	X16	Y16	Z16	X17	Y17	Z17	X18	Y18	Z18	X19	Y19	Z19	X20	Y20	Z20	X21	Y21	Z21	X22	Y22	Z22	X23	Y23	Z23	X24	Y24	Z24	X25	Y25	Z25	X26	Y26	Z26	X27	Y27	Z27	X28	Y28	Z28	X29	Y29	Z29	X30	Y30	Z30	X31	Y31	Z31	X32	Y32	Z32	X33	Y33	Z33	X34	Y34	Z34	X35	Y35	Z35	X36	Y36	Z36	X37	Y37	Z37	X38	Y38	Z38	X39	Y39	Z39	X40	Y40	Z40	X41	Y41	Z41	X42	Y42	Z42	X43	Y43	Z43	X44	Y44	Z44	X45	Y45	Z45	X46	Y46	Z46	X47	Y47	Z47	X48	Y48	Z48	X49	Y49	Z49	X50	Y50	Z50	X51	Y51	Z51	X52	Y52	Z52	X53	Y53	Z53	

133	1.32	-1176.858764648438	969.7960815429688	-446.4316711425781	-1099.698852539062	967.3622436523438	-564.3602905273438	-1139.6083984375	1059.193725585938	-489.5604858398438	-905.7881469726562	1258.295532226562	-360.8443298339844	-1155.64111328125	1181.834716796875	-503.8836059570312	-1110.63916015625	1449.944702148438	-462.4971008300781	-938.0023193359375	1371.35302734375	-384.6585998535156	-1209.164916992188	1330.365112304688	-407.9356079101562	-1089.552734375	1403.321044921875	-564.8512573242188	-958.892822265625	1426.273681640625	-582.7598266601562	-916.8876342773438	1310.609985351562	-674.6905517578125	-872.1002807617188	1097.453002929688	-697.9810791015625	-972.995849609375	1076.776123046875	-681.71875	-813.628173828125	898.9730834960938	-618.3502197265625	-822.9051513671875	882.0548706054688	-690.1453857421875	-843.860595703125	1011.544555664062	-695.858642578125	-794.9021606445312	731.8131713867188	-615.8208618164062	-812.968994140625	801.6557006835938	-684.103515625	-792.2097778320312	811.1734008789062	-616.3541870117188	-1123.644897460938	1421.185546875	-286.9111328125	-1171.465454101562	1359.392211914062	-225.3203582763672	-1170.971801757812	1072.323608398438	-162.1535797119141	-1208.800659179688	1053.614990234375	-215.1799011230469	-1052.470336914062	875.7593994140625	-172.7748718261719	-1131.4248046875	857.3738403320312	-137.3364715576172	-1167.382690429688	1014.007202148438	-151.0758514404297	-1046.103271484375	716.8557739257812	-161.8404541015625	-1037.045654296875	777.101318359375	-154.5633697509766	-1109.785888671875	771.3037109375	-133.0839996337891	-1103.748168945312	1643.51513671875	-364.8149108886719	-906.4756469726562	1678.3876953125	-417.8550415039062	-980.7456665039062	1676.697509765625	-310.1283569335938	-1016.155212402344	1648.896118164062	-519.6478881835938	-926.5255126953125	858.9595947265625	-590.60302734375	-1160.481567382812	862.6131591796875	-268.0865783691406	-1038.580078125	901.4470825195312	-260.1855773925781	-884.7188720703125	895.3387451171875	-469.4143676757812	-974.2877197265625	437.0589904785156	-561.7127685546875	-929.651611328125	587.34912109375	-565.4119262695312	-1061.150634765625	33.5552978515625	-596.9349975585938	-986.174072265625	286.975341796875	-575.5648803710938	-906.7315063476562	45.26453399658203	-420.59619140625	-985.556884765625	49.11076354980469	-433.7937927246094	-927.19287109375	46.18539810180664	-530.9860229492188	-1133.617309570312	37.06463241577148	-584.3672485351562	-1139.630859375	464.5285949707031	-291.1177673339844	-1130.56640625	726.0542602539062	-239.9431610107422	-1176.894165039062	41.69626617431641	-324.3481750488281	-1152.266967773438	320.7347717285156	-285.6807861328125	-967.8687744140625	49.02309799194336	-262.8819885253906	-1004.814758300781	53.53805541992188	-324.8381042480469	-1071.54296875	48.5001220703125	-238.8974914550781	-1214.023559570312	33.83986282348633	-396.5606689453125	
134	1.33	-1176.394409179688	969.8724365234375	-446.6737976074219	-1099.091674804688	967.3390502929688	-564.57080078125	-1139.1083984375	1059.275756835938	-489.6739501953125	-905.2139282226562	1258.2451171875	-360.8908386230469	-1155.03564453125	1181.92822265625	-503.9830627441406	-1109.92626953125	1450.036743164062	-462.5294189453125	-937.36279296875	1371.328247070312	-384.656005859375	-1208.508056640625	1330.476928710938	-408.037841796875	-1088.84765625	1403.426391601562	-564.872802734375	-958.2034301757812	1426.279174804688	-582.7837524414062	-916.1668701171875	1310.567749023438	-674.668701171875	-871.5994262695312	1097.401245117188	-697.918701171875	-972.5542602539062	1076.756591796875	-681.6806640625	-813.3722534179688	898.7615356445312	-618.3234252929688	-822.6226806640625	881.9384765625	-690.09619140625	-843.4595947265625	1011.453369140625	-695.816162109375	-795.0142822265625	731.5648803710938	-615.8228759765625	-812.7963256835938	801.5307006835938	-684.0401000976562	-791.9849853515625	810.9598388671875	-616.2386474609375	-1123.01708984375	1421.213623046875	-286.95947265625	-1170.885375976562	1359.4248046875	-225.4315643310547	-1170.665161132812	1072.328125	-162.3821716308594	-1208.386474609375	1053.637329101562	-215.4761047363281	-1052.22021484375	875.752685546875	-172.6969299316406	-1131.218872070312	857.3722534179688	-137.5384826660156	-1167.1064453125	1014.015686035156	-151.2979888916016	-1045.841674804688	716.8572998046875	-161.8744201660156	-1036.79736328125	777.0789184570312	-154.5272216796875	-1109.563354492188	771.2998657226562	-133.2942047119141	-1102.958251953125	1643.596435546875	-364.7814025878906	-905.6091918945312	1678.386962890625	-417.8640747070312	-979.8674926757812	1676.732543945312	-310.151611328125	-1015.349914550781	1648.963012695312	-519.6638793945312	-925.9638061523438	858.9591674804688	-590.8446655273438	-1160.08447265625	862.5922241210938	-268.328369140625	-1038.215942382812	901.388427734375	-260.4311828613281	-884.3759765625	895.3326416015625	-469.571533203125	-973.593994140625	436.9731140136719	-561.62841796875	-928.9863891601562	587.3388671875	-565.400390625	-1061.076416015625	33.50739288330078	-597.0035400390625	-985.6180419921875	286.8414916992188	-575.4278564453125	-906.8704223632812	45.29265975952148	-420.5140380859375	-985.6622314453125	49.07259750366211	-433.8209228515625	-927.2700805664062	46.28118515014648	-530.9341430664062	-1133.601318359375	37.00159454345703	-584.4911499023438	-1139.152587890625	464.49267578125	-290.9945373535156	-1130.212646484375	726.0668334960938	-240.0670471191406	-1176.961791992188	41.61507415771484	-324.32177734375	-1152.01416015625	320.6932067871094	-285.5852355957031	-967.9652099609375	49.05997085571289	-262.8086547851562	-1004.863708496094	53.57155227661133	-324.8308410644531	-1071.588623046875	48.47287750244141	-238.8550872802734	-1214.1005859375	33.73957443237305	-396.5418090820312	
135	1.34	-1175.905151367188	969.946533203125	-446.8900756835938	-1098.484375	967.3200073242188	-564.7671508789062	-1138.600708007812	1059.364990234375	-489.790771484375	-904.6136474609375	1258.189697265625	-360.9546203613281	-1154.406127929688	1182.02099609375	-504.1004028320312	-1109.178955078125	1450.1240234375	-462.5743103027344	-936.6988525390625	1371.297241210938	-384.6531982421875	-1207.825805664062	1330.581909179688	-408.1322631835938	-1088.1142578125	1403.53759765625	-564.8966674804688	-957.4758911132812	1426.302124023438	-582.8026733398438	-915.421142578125	1310.524658203125	-674.6621704101562	-871.072509765625	1097.340942382812	-697.8578491210938	-972.0809326171875	1076.780883789062	-681.6531372070312	-813.1306762695312	898.5425415039062	-618.2978515625	-822.3548583984375	881.8193359375	-690.05078125	-843.0637817382812	1011.349426269531	-695.7757568359375	-795.1536254882812	731.3034057617188	-615.8383178710938	-812.6422119140625	801.38720703125	-683.9658813476562	-791.7819213867188	810.7181396484375	-616.123291015625	-1122.355590820312	1421.236694335938	-286.9996948242188	-1170.281616210938	1359.455078125	-225.5412139892578	-1170.361572265625	1072.328735351562	-162.6008148193359	-1207.973999023438	1053.658813476562	-215.765380859375	-1051.950073242188	875.7479858398438	-172.6337585449219	-1130.999389648438	857.3699951171875	-137.7574920654297	-1166.830688476562	1014.022705078125	-151.5275421142578	-1045.565673828125	716.8568115234375	-161.9365539550781	-1036.54541015625	777.0475463867188	-154.5159912109375	-1109.324340820312	771.2869262695312	-133.5379486083984	-1102.136108398438	1643.693359375	-364.7485046386719	-904.6964721679688	1678.396118164062	-417.8768920898438	-978.9669799804688	1676.77490234375	-310.1633605957031	-1014.513977050781	1649.019897460938	-519.6742553710938	-925.3948364257812	858.9559936523438	-591.1201171875	-1159.609497070312	862.5647583007812	-268.5726013183594	-1037.783813476562	901.3268432617188	-260.7132263183594	-883.9887084960938	895.3344116210938	-469.7918395996094	-972.8275756835938	436.9134826660156	-561.5322265625	-928.2642822265625	587.3312377929688	-565.377197265625	-1060.994384765625	33.45291137695312	-597.0721435546875	-985.0346069335938	286.6775512695312	-575.2622680664062	-907.0225830078125	45.31786727905273	-420.4197082519531	-985.77685546875	49.02847671508789	-433.8414611816406	-927.3599243164062	46.39013290405273	-530.8834228515625	-1133.587768554688	36.93361663818359	-584.6231689453125	-1138.568237304688	464.4551086425781	-290.8471984863281	-1129.7666015625	726.0693969726562	-240.1905059814453	-1177.034057617188	41.53084564208984	-324.2888488769531	-1151.687866210938	320.6498718261719	-285.46923828125	-968.0633544921875	49.09737014770508	-262.7284240722656	-1004.915344238281	53.60522079467773	-324.8202209472656	-1071.635620117188	48.44253921508789	-238.8077545166016	-1214.18310546875	33.64447021484375	-396.51416015625	
136	1.35	-1175.390991210938	970.015625	-447.0784912109375	-1097.883544921875	967.30712890625	-564.9496459960938	-1138.07568359375	1059.462158203125	-489.9198608398438	-903.9820556640625	1258.126953125	-361.0386962890625	-1153.751586914062	1182.115966796875	-504.2324523925781	-1108.397094726562	1450.205200195312	-462.6280212402344	-936.005126953125	1371.259887695312	-384.6561889648438	-1207.119384765625	1330.677734375	-408.2162475585938	-1087.348510742188	1403.65478515625	-564.9246826171875	-956.7008666992188	1426.341064453125	-582.8147583007812	-914.657470703125	1310.486206054688	-674.6724243164062	-870.5277709960938	1097.272705078125	-697.7987670898438	-971.5537109375	1076.833129882812	-681.6328125	-812.9036254882812	898.322998046875	-618.2776489257812	-822.0953979492188	881.6941528320312	-690.0093994140625	-842.6680908203125	1011.231994628906	-695.7355346679688	-795.3038940429688	731.037353515625	-615.8666381835938	-812.4982299804688	801.2230224609375	-683.8837280273438	-791.59912109375	810.4567260742188	-616.0137939453125	-1121.655151367188	1421.25048828125	-287.0313415527344	-1169.651977539062	1359.478759765625	-225.6423187255859	-1170.057250976562	1072.322875976562	-162.8156433105469	-1207.557983398438	1053.675415039062	-216.0586395263672	-1051.655883789062	875.7420654296875	-172.5907592773438	-1130.769165039062	857.3634643554688	-137.9901275634766	-1166.555053710938	1014.02490234375	-151.76513671875	-1045.279174804688	716.851806640625	-162.0165100097656	-1036.289306640625	777.0081787109375	-154.5253448486328	-1109.072998046875	771.2637939453125	-133.8030700683594	-1101.28369140625	1643.804321289062	-364.7252807617188	-903.7404174804688	1678.418701171875	-417.8883972167969	-978.0463256835938	1676.822387695312	-310.1597290039062	-1013.647888183594	1649.064086914062	-519.6737060546875	-924.827880859375	858.9481201171875	-591.4359130859375	-1159.058715820312	862.5322875976562	-268.8075866699219	-1037.28466796875	901.2705078125	-261.0245666503906	-883.5403442382812	895.3507690429688	-470.0807189941406	-971.9830932617188	436.8792114257812	-561.4170532226562	-927.4906005859375	587.3167724609375	-565.34521484375	-1060.909423828125	33.39194869995117	-597.1384887695312	-984.4229736328125	286.4748840332031	-575.0654296875	-907.184814453125	45.33945846557617	-420.3148498535156	-985.8972778320312	48.97890853881836	-433.85302734375	-927.4627685546875	46.51163482666016	-530.8342895507812	-1133.575317382812	36.86309814453125	-584.76025390625	-1137.868896484375	464.4171142578125	-290.6708984375	-1129.216918945312	726.0634155273438	-240.3123931884766	-1177.1123046875	41.44403839111328	-324.2469482421875	-1151.279052734375	320.6050415039062	-285.3327941894531	-968.1631469726562	49.13639068603516	-262.6419677734375	-1004.971313476562	53.63914108276367	-324.8057861328125	-1071.684204101562	48.40785217285156	-238.7555847167969	-1214.268920898438	33.55350112915039	-396.4799194335938	
